# xmcd CD database file
#
# Track frame offsets:
#	150
#	33734
#	61117
#	97806
#	123099
#	154083
#	185983
#	210678
#
# Disc length: 3232 seconds
#
# Revision: 0
# Processed by: cddbd v1.5.2PL0 Copyright (c) Steve Scherf et al.
# Submitted via: CDex 1.70beta2
#
DISCID=680c9e08
DTITLE=Güç Başar Gülle - Ilk Renk
DYEAR=2010
DGENRE=Jazz
TTITLE0=Sobe
TTITLE1=Aĝır Aksak No 51 
TTITLE2=Muhabbet
TTITLE3=Bayati Aĝırlama
TTITLE4=Günlük
TTITLE5=Berabere
TTITLE6=Güvercin Adımları
TTITLE7=Ilk Renk
EXTD=YEAR: 2010
EXTT0=
EXTT1=
EXTT2=
EXTT3=
EXTT4=
EXTT5=
EXTT6=
EXTT7=
PLAYORDER=
